<?xml version="1.0" encoding="UTF-8" standalone="no"?>
<svg width="29px" height="29px" viewBox="0 0 29 29" version="1.1" xmlns="http://www.w3.org/2000/svg" xmlns:xlink="http://www.w3.org/1999/xlink">
    <!-- Generator: Sketch 47 (45396) - http://www.bohemiancoding.com/sketch -->
    <title>icon/globe.2</title>
    <desc>Created with Sketch.</desc>
    <defs></defs>
    <g id="Page-1" stroke="none" stroke-width="1" fill="none" fill-rule="evenodd">
        <g id="index" transform="translate(-772.000000, -480.000000)" fill-rule="nonzero" fill="#F8F8F8">
            <g id="hero">
                <g id="icon/globe.2" transform="translate(772.000000, 480.000000)">
                    <path d="M14.5,29 C14.2,29 14,28.8 14,28.5 L14,0.5 C14,0.2 14.2,0 14.5,0 C14.8,0 15,0.2 15,0.5 L15,28.5 C15,28.8 14.8,29 14.5,29 Z" id="Shape"></path>
                    <path d="M28.5,15 L0.5,15 C0.2,15 0,14.8 0,14.5 C0,14.2 0.2,14 0.5,14 L28.5,14 C28.8,14 29,14.2 29,14.5 C29,14.8 28.8,15 28.5,15 Z" id="Shape"></path>
                    <path d="M25.5,7 L3.5,7 C3.2,7 3,6.8 3,6.5 C3,6.2 3.2,6 3.5,6 L25.5,6 C25.8,6 26,6.2 26,6.5 C26,6.8 25.8,7 25.5,7 Z" id="Shape"></path>
                    <path d="M26.5,22 L2.5,22 C2.2,22 2,21.8 2,21.5 C2,21.2 2.2,21 2.5,21 L26.5,21 C26.8,21 27,21.2 27,21.5 C27,21.8 26.8,22 26.5,22 Z" id="Shape"></path>
                    <path d="M14.5,29 C6.5,29 0,22.5 0,14.5 C0,6.5 6.5,0 14.5,0 C22.5,0 29,6.5 29,14.5 C29,22.5 22.5,29 14.5,29 Z M14.5,1 C7.1,1 1,7.1 1,14.5 C1,21.9 7.1,28 14.5,28 C21.9,28 28,21.9 28,14.5 C28,7.1 21.9,1 14.5,1 Z" id="Shape"></path>
                    <path d="M14.5,29 C9.8,29 6,22.5 6,14.5 C6,6.5 9.8,0 14.5,0 C19.2,0 23,6.5 23,14.5 C23,22.5 19.2,29 14.5,29 Z M14.5,1 C10.4,1 7,7.1 7,14.5 C7,21.9 10.4,28 14.5,28 C18.6,28 22,21.9 22,14.5 C22,7.1 18.6,1 14.5,1 Z" id="Shape"></path>
                </g>
            </g>
        </g>
    </g>
</svg>