<?xml version="1.0" encoding="UTF-8" standalone="no"?>
<svg width="10px" height="10px" viewBox="0 0 10 10" version="1.1" xmlns="http://www.w3.org/2000/svg" xmlns:xlink="http://www.w3.org/1999/xlink">
    <!-- Generator: Sketch 47 (45396) - http://www.bohemiancoding.com/sketch -->
    <title>icon/index</title>
    <desc>Created with Sketch.</desc>
    <defs></defs>
    <g id="Symbols" stroke="none" stroke-width="1" fill="none" fill-rule="evenodd">
        <g id="btn_hero" transform="translate(-13.000000, -9.000000)" fill="#FFFFFF" fill-rule="nonzero">
            <g id="icon/index">
                <path d="M22.8996674,13.6098241 L18.498001,9.20153749 C18.2303125,8.93302935 17.7619615,8.93261241 17.4934403,9.20153749 L13.0609669,13.6406775 C13.0014343,13.7002997 12.9835329,13.7899414 13.0160052,13.8679088 C13.0480612,13.9458762 13.1242463,13.9967427 13.2083413,13.9967427 L13.8328092,13.9967427 L13.8328092,18.7915309 C13.8328092,18.9066059 13.9260631,19 14.0409652,19 L16.538837,19 C16.6537391,19 16.746993,18.9066059 16.746993,18.7915309 L16.746993,15.247557 L19.2448647,15.247557 L19.2448647,18.7915309 C19.2448647,18.9066059 19.3381186,19 19.4530207,19 L21.9508924,19 C22.0657945,19 22.1590484,18.9066059 22.1590484,18.7915309 L22.1590484,13.9963257 L22.7876795,13.9963257 C22.9104915,13.9950749 23.0004149,13.9045994 22.9999986,13.7878567 C22.9995822,13.7123909 22.9596163,13.6465147 22.8996674,13.6098241 Z"></path>
            </g>
        </g>
    </g>
</svg>