<?xml version="1.0" encoding="UTF-8" standalone="no"?>
<svg width="11px" height="9px" viewBox="0 0 11 9" version="1.1" xmlns="http://www.w3.org/2000/svg" xmlns:xlink="http://www.w3.org/1999/xlink">
    <!-- Generator: Sketch 47 (45396) - http://www.bohemiancoding.com/sketch -->
    <title>icon/left</title>
    <desc>Created with Sketch.</desc>
    <defs></defs>
    <g id="Symbols" stroke="none" stroke-width="1" fill="none" fill-rule="evenodd">
        <g id="btn_hero" transform="translate(-81.000000, -10.000000)" fill-rule="nonzero" fill="#FFFFFF">
            <g id="icon/left" transform="translate(68.000000, 0.000000)">
                <path d="M23.072725,12.5710751 L17.7167159,12.5710751 L17.7167159,10.2144311 C17.7167159,10.127878 17.6644412,10.0498945 17.5843153,10.016473 C17.5041894,9.98305152 17.4120661,10.0014762 17.3507933,10.0627489 L13.0625582,14.3475562 C13.022281,14.3878334 13,14.4422505 13,14.4992384 C13,14.5562264 13.0227095,14.6106434 13.0625582,14.6509206 L17.3507933,18.9374418 C17.3919275,18.978576 17.446773,19 17.5024755,19 C17.5298983,19 17.5577495,18.9948582 17.5843153,18.9837177 C17.6644412,18.9502962 17.7167159,18.8723127 17.7167159,18.7857596 L17.7167159,16.4274017 L23.072725,16.4274017 C23.1909857,16.4274017 23.2869654,16.331422 23.2869654,16.2131613 L23.2869654,12.7853155 C23.2869654,12.6670548 23.1914142,12.5710751 23.072725,12.5710751 Z"></path>
            </g>
        </g>
    </g>
</svg>