<?xml version="1.0" encoding="UTF-8" standalone="no"?>
<svg width="11px" height="9px" viewBox="0 0 11 9" version="1.1" xmlns="http://www.w3.org/2000/svg" xmlns:xlink="http://www.w3.org/1999/xlink">
    <!-- Generator: Sketch 47 (45396) - http://www.bohemiancoding.com/sketch -->
    <title>icon/right</title>
    <desc>Created with Sketch.</desc>
    <defs></defs>
    <g id="Symbols" stroke="none" stroke-width="1" fill="none" fill-rule="evenodd">
        <g id="btn_hero" transform="translate(-199.000000, -10.000000)" fill-rule="nonzero" fill="#FFFFFF">
            <g id="icon/right" transform="translate(148.000000, 0.000000)">
                <path d="M61.072725,12.5710751 L55.7167159,12.5710751 L55.7167159,10.2144311 C55.7167159,10.127878 55.6644412,10.0498945 55.5843153,10.016473 C55.5041894,9.98305152 55.4120661,10.0014762 55.3507933,10.0627489 L51.0625582,14.3475562 C51.022281,14.3878334 51,14.4422505 51,14.4992384 C51,14.5562264 51.0227095,14.6106434 51.0625582,14.6509206 L55.3507933,18.9374418 C55.3919275,18.978576 55.446773,19 55.5024755,19 C55.5298983,19 55.5577495,18.9948582 55.5843153,18.9837177 C55.6644412,18.9502962 55.7167159,18.8723127 55.7167159,18.7857596 L55.7167159,16.4274017 L61.072725,16.4274017 C61.1909857,16.4274017 61.2869654,16.331422 61.2869654,16.2131613 L61.2869654,12.7853155 C61.2869654,12.6670548 61.1914142,12.5710751 61.072725,12.5710751 Z" transform="translate(56.143483, 14.500000) rotate(-180.000000) translate(-56.143483, -14.500000) "></path>
            </g>
        </g>
    </g>
</svg>