<?xml version="1.0" encoding="UTF-8" standalone="no"?>
<svg width="30px" height="26px" viewBox="0 0 30 26" version="1.1" xmlns="http://www.w3.org/2000/svg" xmlns:xlink="http://www.w3.org/1999/xlink">
    <!-- Generator: Sketch 47 (45396) - http://www.bohemiancoding.com/sketch -->
    <title>icon/wechat</title>
    <desc>Created with Sketch.</desc>
    <defs></defs>
    <g id="Page-1" stroke="none" stroke-width="1" fill="none" fill-rule="evenodd">
        <g id="index" transform="translate(-706.000000, -482.000000)" fill-rule="nonzero" fill="#FFFFFF">
            <g id="hero">
                <g id="icon/wechat" transform="translate(706.000000, 482.000000)">
                    <path d="M27.5,25.5 C27.4,25.5 27.3,25.5 27.2,25.4 L23.3,23.1 C22.3,23.4 21.3,23.5 20.4,23.5 C15.1,23.5 11,20.3 11,16.1 C11,11.9 15.3,8.5 20.5,8.5 C25.7,8.5 30,11.9 30,16.1 C30,18.4 28.7,20.5 26.5,22 L27.9,24.8 C28,25 28,25.2 27.8,25.4 C27.7,25.5 27.6,25.5 27.5,25.5 Z M23.4,22.1 C23.5,22.1 23.6,22.1 23.7,22.2 L26.3,23.8 L25.4,22 C25.3,21.8 25.4,21.5 25.6,21.3 C27.8,20 29,18.1 29,16 C29,12.4 25.2,9.4 20.5,9.4 C15.8,9.4 12,12.4 12,16 C12,19.6 15.6,22.4 20.4,22.4 C21.4,22.4 22.3,22.3 23.3,22 C23.3,22.1 23.3,22.1 23.4,22.1 Z" id="Shape"></path>
                    <circle id="Oval" cx="17" cy="13.5" r="1"></circle>
                    <circle id="Oval" cx="24" cy="13.5" r="1"></circle>
                    <path d="M2.5,20.5 C2.4,20.5 2.2,20.4 2.1,20.3 C2,20.2 2,19.9 2.1,19.7 L3.9,16.8 C1.4,15.1 0,12.5 0,9.8 C0,4.7 4.9,0.5 10.8,0.5 C15.5,0.5 19.6,3 21,6.8 C21.1,7 21,7.1 20.9,7.3 C20.8,7.4 20.6,7.5 20.5,7.5 C14.6,7.5 9.9,11.4 9.9,16.1 C9.9,16.8 10,17.6 10.3,18.3 C10.4,18.5 10.3,18.6 10.2,18.8 C10.2,18.9 10,19 9.8,19 C8.9,18.9 7.5,18.6 6.6,18.3 L2.7,20.5 C2.7,20.5 2.6,20.5 2.5,20.5 Z M10.8,1.5 C5.4,1.5 1,5.2 1,9.8 C1,12.4 2.4,14.7 4.8,16.3 C5,16.4 5.1,16.7 5,16.9 L4,18.6 L6.4,17.3 C6.5,17.2 6.7,17.2 6.8,17.3 C7.5,17.6 8.4,17.8 9.3,17.9 C9.1,17.3 9,16.7 9,16.1 C9,11 13.8,6.8 19.8,6.5 C18.3,3.5 14.8,1.5 10.8,1.5 Z" id="Shape"></path>
                    <path d="M6.5,7.5 C5.7,7.5 5,6.8 5,6 C5,5.2 5.7,4.5 6.5,4.5 C7.3,4.5 8,5.2 8,6 C8,6.8 7.3,7.5 6.5,7.5 Z M6.5,5.5 C6.2,5.5 6,5.7 6,6 C6,6.3 6.2,6.5 6.5,6.5 C6.8,6.5 7,6.3 7,6 C7,5.7 6.8,5.5 6.5,5.5 Z" id="Shape"></path>
                    <path d="M13.5,7.5 C12.7,7.5 12,6.8 12,6 C12,5.2 12.7,4.5 13.5,4.5 C14.3,4.5 15,5.2 15,6 C15,6.8 14.3,7.5 13.5,7.5 Z M13.5,5.5 C13.2,5.5 13,5.7 13,6 C13,6.3 13.2,6.5 13.5,6.5 C13.8,6.5 14,6.3 14,6 C14,5.7 13.8,5.5 13.5,5.5 Z" id="Shape"></path>
                </g>
            </g>
        </g>
    </g>
</svg>