<?xml version="1.0" encoding="UTF-8" standalone="no"?>
<svg width="1639px" height="1014px" viewBox="0 0 1639 1014" version="1.1" xmlns="http://www.w3.org/2000/svg" xmlns:xlink="http://www.w3.org/1999/xlink">
    <!-- Generator: Sketch 47 (45396) - http://www.bohemiancoding.com/sketch -->
    <title>resume_pattern</title>
    <desc>Created with Sketch.</desc>
    <defs></defs>
    <g id="Page-1" stroke="none" stroke-width="1" fill="none" fill-rule="evenodd">
        <g id="resume_pattern" fill-rule="nonzero" fill="#4E4E4F">
            <path d="M1102.1,169.9 C1099.6,167.6 1096.7,165.6 1093.7,164 C1090,162 1086,160.7 1081.9,159.4 C1080.5,159 1079.1,158.5 1077.6,158.2 C1074.8,157.7 1072.1,157.3 1069.3,156.9 C1067.7,156.7 1066,156.5 1064.4,156.5 C1062.6,156.5 1060.8,156.5 1059,156.6 C1056.2,156.8 1053.3,157.1 1050.6,158.1 C1049.6,158.5 1048.6,158.9 1047.5,159.3 C1045.5,160.5 1043.9,162.1 1042.7,164.1 C1042.2,164.9 1041.9,165.7 1041.6,166.6 C1041.4,166.7 1041.1,166.8 1040.9,166.9 C1037.6,168.4 1034.5,170.4 1031.6,172.5 C1028.3,174.9 1025,177.4 1022,180.2 C1020.2,181.9 1018.6,183.7 1017.1,185.6 C1015,188.3 1013,191 1011.4,194.1 C1008.6,199.6 1007.1,205.6 1006.9,211.8 C1006.8,214.8 1007.2,217.8 1007.9,220.7 C1008.6,223.9 1009.9,227 1011.4,230 C1012.9,233 1015,235.6 1017.1,238.1 C1019.3,240.7 1022.1,242.7 1024.8,244.6 C1026.7,245.9 1028.8,247 1030.9,247.9 C1034,249.2 1037.1,250.4 1040.3,251.2 C1043.3,252 1046.4,252.3 1049.5,252.7 C1051.9,253 1054.4,253.1 1056.9,253 C1062.6,252.8 1068.3,251.7 1073.6,249.6 C1076.7,248.4 1079.7,247.1 1082.6,245.4 C1085.7,243.6 1088.5,241.5 1091.3,239.4 C1093.1,238 1094.9,236.5 1096.5,234.9 C1099,232.4 1101.1,229.6 1103.2,226.8 C1106.7,222.2 1109.2,217 1111.2,211.5 C1112,209.4 1112.5,207.3 1112.9,205.1 C1113.4,201.9 1113.8,198.7 1113.7,195.5 C1113.6,192.5 1113.1,189.4 1112.4,186.4 C1111.9,184.4 1111,182.4 1110.2,180.5 C1109.7,179.4 1109.2,178.4 1108.6,177.3 C1107.5,175.4 1106.1,173.7 1104.7,172.1 C1104.3,171.7 1103.9,171.2 1103.5,170.8 C1102.9,170.6 1102.5,170.2 1102.1,169.9 L1102.1,169.9 L1102.1,169.9 Z M1085.7,190 C1086.2,190.7 1086.6,191.5 1087,192.2 C1087.3,193.2 1087.6,194.3 1087.8,195.3 C1087.9,196.7 1087.9,198 1087.8,199.4 C1087.4,201.5 1086.8,203.6 1086.1,205.6 C1084.8,208.5 1083.2,211.2 1081.3,213.8 C1079.1,216.5 1076.7,218.9 1074,221.1 C1071.1,223.2 1068,225 1064.7,226.5 C1062.5,227.3 1060.2,227.9 1057.8,228.3 C1055,228.5 1052.1,228.5 1049.3,228.3 C1046.4,227.8 1043.6,227.1 1040.9,226.2 C1039.2,225.4 1037.6,224.5 1036.1,223.5 C1035,222.6 1034.1,221.6 1033.2,220.6 C1032.4,219.4 1031.7,218.2 1031.1,216.9 C1030.7,215.7 1030.4,214.5 1030.1,213.3 C1030,212.1 1030,210.8 1030.1,209.6 C1030.4,208.1 1030.8,206.6 1031.3,205.1 C1032.3,203 1033.4,201.1 1034.7,199.2 C1037,196.4 1039.5,193.8 1042.3,191.5 C1043.2,190.7 1044.2,189.9 1045.1,189.2 C1048.1,187 1051.2,185 1054.6,183.4 C1054.7,183.3 1054.9,183.3 1055,183.2 C1055.6,183.1 1056.1,183.1 1056.7,182.9 C1058.6,182.7 1060.5,182.6 1062.5,182.6 C1064.6,182.6 1066.6,182.8 1068.7,183 C1070.4,183.3 1072.1,183.7 1073.8,184.1 C1075.6,184.6 1077.5,185.2 1079.3,185.8 C1080.9,186.5 1082.4,187.4 1083.9,188.3 C1084.5,188.8 1085.1,189.4 1085.7,190 L1085.7,190 L1085.7,190 Z" id="Shape"></path>
            <path d="M833,569.8 C831.5,568.4 829.7,567.2 827.9,566.2 C825.6,565 823.2,564.2 820.8,563.4 C820,563.1 819.1,562.9 818.2,562.7 C816.5,562.4 814.8,562.1 813.1,561.9 C812.1,561.8 811.1,561.7 810.1,561.6 C809,561.6 807.9,561.6 806.8,561.6 C805.1,561.7 803.3,561.9 801.7,562.5 C801.1,562.8 800.5,563 799.8,563.3 C798.6,564 797.6,565 796.9,566.2 C796.6,566.7 796.4,567.2 796.2,567.7 C796.1,567.8 795.9,567.8 795.8,567.9 C793.8,568.8 791.9,570 790.1,571.3 C788.1,572.8 786.1,574.3 784.3,576 C783.2,577 782.2,578.1 781.3,579.3 C780,580.9 778.8,582.6 777.8,584.5 C776.1,587.9 775.2,591.5 775.1,595.3 C775,597.1 775.3,598.9 775.7,600.7 C776.1,602.7 776.9,604.6 777.8,606.3 C778.7,608.1 780,609.7 781.3,611.2 C782.6,612.8 784.3,614 786,615.2 C787.1,616 788.4,616.7 789.7,617.2 C791.6,618 793.4,618.7 795.4,619.2 C797.2,619.7 799.1,619.9 801,620.1 C802.5,620.3 804,620.3 805.5,620.3 C809,620.2 812.4,619.5 815.6,618.2 C817.5,617.4 819.3,616.7 821,615.7 C822.9,614.6 824.6,613.3 826.3,612 C827.4,611.2 828.5,610.3 829.4,609.3 C830.9,607.8 832.2,606.1 833.5,604.4 C835.6,601.6 837.1,598.4 838.3,595.1 C838.8,593.8 839.1,592.5 839.3,591.2 C839.6,589.3 839.9,587.3 839.8,585.4 C839.7,583.6 839.5,581.7 839,579.9 C838.7,578.7 838.1,577.5 837.6,576.3 C837.3,575.6 837,575 836.6,574.4 C835.9,573.3 835.1,572.2 834.3,571.2 C834.1,570.9 833.8,570.7 833.6,570.4 C833.4,570.2 833.2,570 833,569.8 L833,569.8 L833,569.8 Z M823,582 C823.3,582.4 823.5,582.9 823.8,583.4 C824,584 824.2,584.7 824.3,585.3 C824.4,586.1 824.3,586.9 824.3,587.8 C824.1,589.1 823.7,590.3 823.3,591.6 C822.5,593.3 821.5,595 820.4,596.6 C819.1,598.2 817.6,599.7 816,601 C814.2,602.3 812.4,603.4 810.4,604.3 C809,604.8 807.7,605.2 806.2,605.4 C804.5,605.5 802.8,605.5 801,605.4 C799.3,605.1 797.6,604.7 795.9,604.1 C794.9,603.6 793.9,603.1 793,602.5 C792.4,601.9 791.8,601.4 791.2,600.7 C790.7,600 790.3,599.2 789.9,598.4 C789.7,597.7 789.5,597 789.3,596.2 C789.3,595.4 789.3,594.7 789.3,593.9 C789.5,593 789.7,592 790,591.1 C790.6,589.8 791.3,588.7 792.1,587.5 C793.5,585.8 795,584.2 796.7,582.8 C797.3,582.3 797.8,581.9 798.4,581.4 C800.2,580.1 802.1,578.8 804.1,577.9 C804.2,577.9 804.3,577.8 804.4,577.8 C804.7,577.8 805.1,577.7 805.4,577.6 C806.6,577.5 807.7,577.4 808.9,577.4 C810.2,577.4 811.4,577.5 812.6,577.6 C813.6,577.8 814.6,578 815.7,578.3 C816.8,578.6 817.9,579 819,579.4 C820,579.8 820.9,580.3 821.8,580.9 C822.3,581.2 822.6,581.6 823,582 L823,582 L823,582 Z" id="Shape"></path>
            <path d="M672.3,234.1 C671.3,233.1 670.1,232.4 668.8,232.1 C668.1,231.9 667.4,231.8 666.7,231.8 C666,231.8 665.3,231.9 664.6,232.1 C663.1,232.4 661.6,233.4 660.4,234.3 C659.5,234.9 658.6,235.6 657.7,236.2 C656,237.4 654.3,238.7 652.7,239.9 C649.3,242.4 645.8,244.9 642.4,247.4 C641.9,247.7 641.5,248.1 641,248.4 C641,248.4 641,248.3 641,248.3 C640.2,246.8 639.5,245.2 638.7,243.7 C637.8,241.7 636.8,239.7 636,237.7 C635.6,237.2 635.2,236.6 634.7,236.1 C633.7,235.1 632.5,234.4 631.1,234 C630.4,233.8 629.7,233.7 629,233.7 C627.6,233.7 626.2,234.1 624.9,234.8 C623.1,235.9 621.8,237.6 621.2,239.6 C621.1,240.3 621,241 620.9,241.7 C620.9,243.2 621.3,244.5 622,245.8 C623,248 624,250.2 625,252.4 C625.8,254.1 626.6,255.7 627.5,257.3 C627.7,257.6 627.9,257.9 628,258.3 C627.2,258.9 626.5,259.6 625.7,260.2 C623.9,261.8 622.1,263.4 620.4,265 C617.6,267.6 614.9,270.4 611.9,272.9 C611.2,273.4 610.6,273.8 609.9,274.2 C608.1,275.3 606.8,277 606.2,279 C605.6,281.1 605.9,283.3 607,285.2 C609.2,288.9 614.3,290.4 618,288.1 C623.5,284.7 627.9,279.9 632.6,275.6 C633.9,274.4 635.2,273.3 636.5,272.1 C637.9,274.1 639.4,276.2 640.9,278.1 C642.4,280.1 643.9,282 645.5,283.9 C645.8,284.2 646.1,284.6 646.3,284.9 C647.2,285.9 648.1,286.7 649.3,287.5 C650.7,288.5 652.4,288.9 654,289 C655.5,289.1 657.1,288.7 658.3,287.9 C658.9,287.5 659.6,287.1 660.1,286.5 C661.1,285.5 661.7,284.4 662.1,283.1 C662.5,281.8 662.5,280.1 662.1,278.8 C661.8,277.8 661.2,276.6 660.6,275.6 C659.7,274.1 658.3,273 656.8,272.4 C656.6,272.1 656.3,271.8 656.1,271.5 C655.6,270.9 655.1,270.2 654.6,269.6 C653.4,268.1 652.2,266.6 651.2,265 C650.5,264 649.9,263 649.2,262 C654.5,258 659.9,254.1 665.3,250.2 C666.2,249.5 667.1,248.9 668,248.3 C668.5,247.9 669,247.6 669.6,247.2 C669.8,247.1 670,246.9 670.2,246.8 C670.9,246.4 671.5,245.8 672.1,245.3 C673.1,244.5 673.9,242.8 674.3,241.6 C675.2,239.1 674.3,236.1 672.3,234.1 Z" id="Shape"></path>
            <path d="M1185.7,348.4 C1184,349.9 1182.8,351.7 1182,353.7 C1181.8,354.1 1181.6,354.5 1181.5,354.8 C1181.2,355.7 1180.9,357.4 1180.7,358.7 C1180.4,360.2 1180.7,361.8 1181,363.3 C1181.1,364 1181.3,364.6 1181.5,365.2 C1181.9,366.5 1182.1,367.7 1182.2,369 C1182.3,372 1182.3,375.1 1182.3,378.1 C1182.4,383.3 1182.7,388.4 1183.1,393.6 C1183.4,397.4 1184.2,401.3 1185,405 C1185.8,408.8 1186.8,412.6 1187.9,416.4 C1189.7,422.5 1191.7,428.5 1193.8,434.4 C1190.3,434.1 1186.9,433.9 1183.4,433.7 C1179.7,433.5 1176,433.3 1172.3,432.7 C1168.5,432.1 1164.7,431.5 1160.9,430.8 C1159,430.5 1157.1,430.1 1155.2,429.9 C1154,429.7 1152.9,429.6 1151.7,429.4 C1147.8,429 1144.1,429 1140.2,429.4 C1138,429.6 1135.7,430.4 1133.7,431.4 C1130.4,433 1129,434.8 1126.7,437.5 C1126.3,437.9 1126,438.4 1125.7,438.9 C1124.7,440.6 1123.8,442.3 1123.1,444.1 C1122.4,445.9 1122.1,448.2 1121.7,449.9 C1120.8,454.8 1121.2,459.9 1121.6,464.9 C1121.9,468.8 1122.6,472.7 1123.5,476.5 C1124.9,482.6 1127.1,488.5 1129.1,494.4 C1130.4,498.2 1131.8,502 1133.1,505.8 C1134.1,509.1 1135.1,512.4 1136.1,515.8 C1133.8,515.8 1131.4,515.8 1129.1,515.8 C1121.5,515.9 1114.1,514.5 1106.7,513.2 C1098.7,511.8 1090.1,510.3 1082.3,513.6 C1079.3,514.9 1077,517 1075.1,519.6 C1073.3,522 1072.7,524.7 1072.3,527.6 C1072,529.7 1072.3,531.9 1072.6,534.1 C1072.8,535.9 1073.1,537.7 1073.3,539.5 C1074.5,547.1 1076.1,554.7 1077.8,562.3 C1079.6,570.2 1081.3,578.1 1083.1,585.9 C1084.3,591.3 1085.7,596.7 1087.1,602 C1086.7,601.9 1086.4,601.7 1086,601.6 C1082.4,600.3 1078.9,598.8 1075.4,597.3 C1070.8,595 1066.3,592.5 1061.8,589.9 C1056.4,586.7 1051,583.3 1046,579.5 C1043,577.2 1038.6,576.6 1035,577.3 C1031.1,578 1027.6,580.4 1025.4,583.7 C1023.3,586.9 1022.5,590.9 1023.2,594.7 C1023.6,596 1024,597.2 1024.5,598.5 C1025.7,600.9 1027.4,602.9 1029.6,604.3 C1033.1,606.9 1036.8,609.3 1040.4,611.7 C1043.4,613.6 1046.5,615.6 1049.6,617.3 C1053.4,619.4 1057.2,621.4 1061.2,623.3 C1065.6,625.5 1070.1,627.5 1074.7,629.3 C1082.8,632.5 1091.5,634.1 1100.2,635.2 C1101,635.3 1101.9,635.4 1102.7,635.5 C1104.3,635.7 1105.9,635.5 1107.6,635.3 C1109.2,635.2 1110.6,634.5 1112.1,633.9 C1113.5,633.3 1114.7,632.5 1115.7,631.4 C1117.6,629.7 1119.1,627.5 1119.9,625.1 C1121.1,621.5 1121,619 1120.7,615.3 C1120.6,614.1 1120.4,612.9 1120.2,611.7 C1120,610.6 1119.7,609.5 1119.5,608.5 C1118.7,604.9 1117.7,601.3 1116.7,597.7 C1112.6,582.1 1109.1,566.5 1105.7,550.7 C1105.2,548.2 1104.6,545.6 1104.1,543.1 C1104.6,543.2 1105.1,543.3 1105.6,543.4 C1109.4,544.1 1113.2,544.8 1117,545.3 C1121,545.7 1125,545.9 1129,545.8 C1132.6,545.8 1136.3,545.7 1139.9,546 C1141.8,546.2 1143.7,546.4 1145.6,546.6 C1146.5,546.7 1147.3,546.8 1148.2,546.9 C1148.9,547 1149.6,547 1150.3,547 C1151.8,547 1153.8,547 1155.4,546.5 C1158.8,545.4 1160.5,544.8 1163.3,542.4 C1165.7,540.4 1167.2,537.6 1168.3,534.7 C1168.9,533.2 1169.3,531.1 1169.3,529.3 C1169.2,527.2 1169.2,525.2 1168.7,523.2 C1168.3,521.5 1167.8,519.8 1167.3,518.1 C1166.3,514.4 1165.3,510.6 1164.2,506.9 C1162.6,501.7 1160.9,496.5 1159.2,491.3 C1157.8,487.2 1156.3,483.1 1154.9,479 C1153.9,475.6 1152.9,472.3 1152.1,468.8 C1151.4,465.8 1151,462.8 1150.8,459.8 C1150.8,459.6 1150.8,459.4 1150.8,459.3 C1153.5,459.6 1156.1,460.1 1158.7,460.6 C1162.5,461.3 1166.3,462 1170.1,462.5 C1177.9,463.4 1185.7,463.6 1193.4,464.4 C1197.3,464.8 1201.3,465.4 1205.2,465.2 C1206.8,465.1 1208.4,465.1 1210,464.9 C1211.5,464.7 1213.8,463.7 1214.6,463.4 C1215.2,463.2 1215.6,463 1216.1,462.7 C1217.5,461.8 1219,460.9 1220.2,459.8 C1222.6,457.6 1225,454.3 1225.8,451 C1226.2,449.4 1226.7,447.6 1226.8,445.9 C1226.9,444.2 1226.7,442.4 1226.5,440.7 C1226.4,439.3 1225.9,437.9 1225.4,436.5 C1224.4,433.4 1223.3,430.3 1222.3,427.2 C1221.4,424.5 1220.4,421.7 1219.5,419 C1217.7,413.4 1216.1,407.9 1214.7,402.2 C1213.3,396.8 1212.5,391.2 1212,385.6 C1211.8,381.1 1211.8,376.7 1211.7,372.2 C1211.7,369.7 1211.5,367.2 1211.4,364.7 C1211.3,363.6 1211.2,362.4 1210.9,361.3 C1210.7,360.3 1210.3,359.3 1210.1,358.3 C1209.8,356.7 1209.4,355 1208.5,353.5 C1207.8,352.3 1207,351 1206.1,349.9 C1203.7,347.4 1202.7,347 1199.6,345.6 C1198.4,345.4 1197.2,345.1 1196,344.9 C1193.4,344.7 1191,345.2 1188.7,346.3 C1187.9,347 1186.8,347.7 1185.7,348.4 L1185.7,348.4 L1185.7,348.4 Z" id="Shape"></path>
            <path d="M541.6,12.4 C540.2,13.2 538.9,14 537.6,14.9 C535,16.5 532.5,18.3 530.1,20.2 C526.2,23.2 522.4,26.2 518.9,29.7 C516.9,31.7 515,33.9 513.2,36.1 C508.4,41.9 503.7,48 500.5,54.9 C497.5,61.5 495.1,68.3 492.5,75.1 C490.7,79.2 488.7,83.1 486.2,86.8 C483.1,90.6 479.7,94.1 476,97.3 C475.6,97.5 475.3,97.8 474.9,98 C474.4,98.1 473.9,98.3 473.3,98.4 C472.5,97.6 471.7,96.7 470.8,95.9 C468.7,93.8 466.6,91.8 464.4,89.8 C459.1,84.8 453.6,79.6 446.9,76.6 C442.9,74.9 438.7,72.8 434.4,72.2 C431.5,71.8 428.4,71.1 425.4,71.2 C422.1,71.4 418.9,71.7 415.7,72.4 C414.2,72.7 412.7,73 411.3,73.6 C408.2,74.8 404.9,76 402,77.7 C399.4,79.1 396.9,80.7 394.5,82.4 C388.1,86.9 381.9,91.7 376.4,97.3 C372,101.7 367.9,106.4 364.1,111.3 C361.2,115 358.3,118.8 355.6,122.7 C353.8,125.4 352,128.2 350.3,131 C347,136.4 344.2,142 341.2,147.5 C337.5,154.4 333.5,161.1 329,167.5 C328.5,168.1 328,168.7 327.5,169.3 C326.7,170.2 325.8,171.1 324.8,171.9 C324.4,172.2 323.9,172.5 323.5,172.8 C322.7,173.3 321.8,173.8 320.9,174.2 C318.4,175.1 315.8,175.9 313.2,176.4 C310.2,177 307.2,177.6 304.2,178 C299.5,178.4 294.9,178.7 290.2,178.4 C289.5,178.3 288.9,178.1 288.2,177.9 C287.7,177.6 287.2,177.3 286.7,176.9 C282.9,173.8 279.3,170.6 275.8,167.2 C273.7,165.1 271.5,163.1 269.2,161.2 C266.9,159.4 264.6,157.5 262,156 C259.3,154.4 256.4,153.3 253.5,152.2 C250.8,151.1 248.1,150.4 245.2,149.9 C242.3,149.4 239.1,148.9 236.1,148.9 C235.3,148.9 234.6,149 233.8,149 C232.1,149.1 228.7,149.5 226.5,150 C222.6,150.9 218.9,152.5 215.2,154.2 C213.8,154.9 212.4,155.6 211.1,156.4 C207,158.8 203.2,161.9 199.6,164.9 C193.6,169.8 188.7,176.3 184.2,182.6 C180.6,187.6 177.5,192.9 174.6,198.3 C168.7,209.4 163.5,220.9 158.3,232.3 C155.8,237.9 153.1,243.3 149.7,248.4 C149.3,248.9 148.8,249.3 148.4,249.7 C147,250.6 145.5,251.4 144,252.2 C142.2,252.8 140.4,253.3 138.5,253.7 C136.5,253.8 134.5,253.7 132.5,253.6 C126.4,252.4 120.4,250.5 114.6,248.3 C112.9,247.5 111.2,246.6 109.6,245.6 C106.8,243.9 104.2,242 101.6,240.1 C99.1,238.3 96.6,236.5 94,234.8 C92.8,234 91.5,233.3 90.3,232.7 C87.5,231.3 84.6,230 81.6,229 C78.2,227.9 74.7,227.4 71.1,227 C69.2,226.8 67.3,226.8 65.4,227 C63.4,227.2 60.2,227.5 57.9,228 C53.2,229.1 48.6,231 44.3,233.2 C41.6,234.5 39.1,236.1 36.7,237.9 C32.7,240.8 29.1,243.8 25.5,247.2 C23.2,249.4 21.1,251.9 19.1,254.4 C16.3,258 13.5,261.6 11.1,265.6 C8.7,269.6 6.9,273.7 5.1,278 C3.9,280.9 2.9,283.8 2.2,286.8 C1.2,291.3 0.6,295.9 0.2,300.5 C-0.1,303.5 -8.03176969e-16,306.4 0.2,309.4 C0.8,316.7 2.1,324 4.6,331 C5.9,334.8 7.4,338.5 9,342.1 C9.6,343.4 10.2,344.6 11.1,345.7 C12,346.9 12.9,348.2 14,349.2 C15.8,350.9 16.6,351.2 18.9,352.1 C19.1,352.2 19.2,352.2 19.4,352.3 C21.8,353.2 24.9,352.5 27,351.3 C28.5,350.4 29.7,349.2 30.6,347.7 C30.6,347.7 30.6,347.7 30.6,347.7 C31.7,346.2 32.3,344.3 32.6,342.4 C32.9,340.1 33.2,337.9 33.2,335.6 C33.2,332.7 33.2,329.7 33.2,326.8 C33.3,321.9 33.5,317 34,312.1 C34.5,309.2 35.1,306.4 35.8,303.5 C36.5,300.7 37.4,297.9 38.5,295.2 C39.5,293.1 40.5,291.1 41.7,289.2 C42.9,287.3 44.1,285.5 45.4,283.7 C47.1,281.6 48.9,279.6 50.8,277.6 C52.3,276 53.9,274.6 55.6,273.2 C58.1,271.4 60.7,269.9 63.5,268.5 C64.5,268.2 65.5,267.9 66.5,267.6 C66.9,267.6 67.3,267.6 67.7,267.6 C68.2,267.7 68.8,267.9 69.3,268.1 C74.2,270.7 78.5,274.1 82.9,277.3 C85.4,279.2 88,280.9 90.8,282.4 C94.9,284.8 99.4,286.5 103.8,288.2 C109.6,290.4 115.7,292.3 121.7,293.5 C126.4,294.4 131.3,295.1 136.2,295.1 C137.7,295.1 139.2,295 140.7,294.8 C144,294.4 147.3,294 150.6,293.3 C155.2,292.2 159.6,290.2 163.9,288.3 C166.6,287.1 169.1,285.6 171.5,283.8 C174,282 176.4,280.1 178.6,278 C180.6,276 182.5,273.4 184.1,271.1 C185.1,269.6 186.1,268.2 187.1,266.7 C188.7,264.2 190,261.5 191.3,258.9 C194.1,253.3 196.5,247.5 199.1,241.8 C201.8,236 204.5,230.3 207.4,224.6 C209.6,220.3 211.8,216.1 214.2,212 C216,208.9 218,206 220,203.1 C222.7,199.9 225.5,196.9 228.6,194.2 C230.6,192.8 232.7,191.5 234.9,190.3 C235.2,190.2 235.4,190.2 235.7,190.1 C236,190.1 236.3,190.1 236.5,190.1 C237.6,190.4 238.7,190.7 239.8,191 C240.6,191.4 241.3,191.9 242,192.3 C245.6,195.4 248.9,198.9 252.5,202.1 C254.8,204.1 257.2,206.1 259.7,208 C262.8,210.4 265.8,213 269.5,214.6 C272.6,216 275.6,217.3 278.9,218 C282.5,218.8 286.2,219.2 289.9,219.5 C293.9,219.8 298,219.5 302,219.3 C306.9,219 311.8,218.2 316.6,217.4 C322.8,216.4 328.8,214.9 334.6,212.5 C339,210.7 343.3,209 347.1,206.1 C349.7,204.1 352.2,202.2 354.7,200 C356,198.9 357.1,197.5 358.2,196.2 C361.2,192.7 363.9,188.8 366.6,185 C368.4,182.3 370.1,179.6 371.8,176.8 C378.2,166.2 383.2,154.9 390.2,144.6 C391.5,142.6 392.9,140.6 394.3,138.7 C400,131.6 406.1,124.9 413.1,119.1 C416.3,116.7 419.7,114.5 423.2,112.6 C423.8,112.4 424.4,112.3 425,112.1 C425.2,112.1 425.4,112.1 425.6,112.1 C426.4,112.3 427.1,112.5 427.9,112.8 C428.7,113.2 429.4,113.6 430.1,114.1 C433.4,117 436.6,120.1 439.7,123.2 C442,125.4 444.1,127.6 446.4,129.8 C446.9,130.3 447.4,130.7 448,131.1 C449.6,132.4 451.4,133.8 453.2,135 C454.9,136.1 458,137.1 459.2,137.6 C460.4,138.1 461.6,138.4 462.8,138.6 C465.2,138.9 467.8,139.5 470.3,139.5 C471.7,139.5 473.1,139.4 474.5,139.3 C477.8,138.9 481.1,138.7 484.3,137.9 C487.4,137.1 490.4,135.9 493.3,134.5 C494.7,133.8 496.1,133.1 497.4,132.2 C501.2,129.5 504.8,126.6 508.2,123.4 C510.4,121.3 512.3,119.1 514.3,116.9 C516.5,114.4 518.5,111.7 520.5,109 C521.5,107.6 522.5,106.2 523.4,104.8 C525.2,101.8 526.7,98.6 528.2,95.4 C531.2,88.8 533.6,82 536.2,75.3 C537.9,71.7 539.9,68.3 542.2,65.1 C543.6,63.4 545,61.7 546.5,60.1 C548.7,57.8 550.9,55.7 553.3,53.7 C554.8,52.6 556.4,51.5 558,50.5 C559.3,49.7 560.5,48.9 561.8,48.1 C562.4,47.7 563.1,47.4 563.7,47 C564.9,46.3 567,44.4 568.5,43.2 C571.2,41.1 573.4,36.6 574.1,33.3 C574.3,31.6 574.6,29.9 574.8,28.2 C574.8,24.6 573.9,21.2 572.1,18 C571,16.6 570,15.3 568.9,13.9 C566.4,11.5 563.5,9.8 560.2,8.9 C556.4,7.6 552.5,7.7 548.9,8.7 C546.6,9.8 544.1,11 541.6,12.4 L541.6,12.4 L541.6,12.4 Z" id="Shape"></path>
            <path d="M272.2,369.5 C269.1,370.8 269.1,370.6 267,372.3 C264.6,373.8 262.1,375.1 259.6,376.4 C256.7,378 253.7,379.5 250.8,381 C244.4,384.3 238.1,387.7 231.9,391.2 C225.9,394.6 220.3,398.5 214.7,402.6 C211.1,405.2 207.8,408.1 204.5,411.1 C202,413.4 199.6,415.8 197.3,418.4 C196.6,419.2 195.9,420 195.2,420.8 C194.5,421.7 193.8,422.6 193.2,423.5 C192,425.5 191.4,427.7 191.4,430.1 C191.4,433.6 192.8,436.9 195.2,439.4 C197.6,441.8 201,443.2 204.5,443.2 C207.8,443.2 211.6,441.9 213.8,439.4 C216.5,436.3 219.4,433.4 222.3,430.5 C224.5,428.3 226.8,426.4 229.2,424.4 C234.2,420.8 239.3,417.2 244.7,414.2 C251,410.6 257.4,407.2 263.9,403.8 C267.2,402.1 270.5,400.4 273.8,398.6 C275.4,397.7 277,396.9 278.6,395.9 C279.9,395.1 281.2,394.3 282.4,393.4 C284.5,392.1 285.4,390.9 286.9,388.8 C288.8,386 289.1,381.9 288.2,378.7 C287,374.3 283.5,370.7 279,369.5 C278,369.2 276.5,369 275.1,369 C274.1,369 273,369.2 272.2,369.5 L272.2,369.5 L272.2,369.5 Z M272.2,394.7 C272.2,394.8 272.2,394.8 272.2,394.7 C272.2,394.8 272.2,394.8 272.2,394.7 C272.2,394.8 272.2,394.8 272.2,394.7 L272.2,394.7 L272.2,394.7 Z" id="Shape"></path>
            <path d="M1411.8,704.5 C1409.2,705.1 1406.8,705.9 1404.4,707.1 C1403.7,707.4 1403,707.8 1402.3,708.3 C1400.7,709.4 1399.1,710.6 1397.7,712 C1395.6,714.1 1393.9,716.7 1392.5,719.3 C1391,722 1389.8,724.9 1388.8,727.9 C1388.2,729.7 1387.8,731.5 1387.5,733.3 C1387,736.3 1386.6,739.4 1386.6,742.5 C1386.6,743.4 1386.7,744.4 1386.8,745.3 C1387,747.4 1387.3,749.5 1387.8,751.5 C1388.4,754.3 1389.6,757 1391,759.6 C1391.8,761.2 1393.1,762.6 1394.2,764 C1394.7,764.7 1395.3,765.3 1395.9,765.9 C1397.2,767.2 1398.8,768.3 1400.3,769.4 C1402,770.6 1404.1,771.3 1406,772.1 C1408.8,773.3 1411.9,773.6 1415,773.9 C1418,774.2 1421.2,773.6 1424.1,773.1 C1427.1,772.6 1429.9,771.5 1432.7,770.3 C1433.4,770 1434,769.7 1434.7,769.3 C1435.5,768.9 1436.2,768.3 1437,767.8 C1440.7,765.9 1443,761.4 1443,757.3 C1443,752 1439.3,746.9 1434.1,745.6 C1431,744.9 1428.1,744.9 1425,745.7 C1424.2,745.9 1423.4,746.1 1422.6,746.4 C1420.9,746.9 1419.3,747.3 1417.5,747.7 C1416.8,747.7 1416.1,747.7 1415.4,747.7 C1415.1,747.6 1414.9,747.6 1414.6,747.5 C1414.5,747.4 1414.3,747.4 1414.2,747.3 C1414.1,747.2 1414,747.1 1413.9,747 C1413.8,746.8 1413.6,746.5 1413.5,746.3 C1413.3,745.6 1413.1,744.8 1412.9,744 C1412.8,742.5 1412.8,741 1412.9,739.5 C1413.2,737.8 1413.7,736 1414.2,734.4 C1414.8,733.2 1415.5,732 1416.2,730.8 C1416.3,730.7 1416.3,730.7 1416.4,730.6 C1417.1,730.4 1417.9,730.2 1418.7,730 C1425.6,728.3 1429.7,720.6 1427.9,713.9 C1427,710.6 1424.8,707.8 1421.9,706.1 C1419.9,704.9 1417.6,704.3 1415.3,704.3 C1414.1,704.1 1412.9,704.2 1411.8,704.5 L1411.8,704.5 L1411.8,704.5 Z" id="Shape"></path>
            <path d="M1098.3,747 C1096.2,748.2 1094.6,750.3 1093.9,752.7 C1093.2,755.1 1093.6,757.8 1094.9,760 C1096.2,762.2 1098.2,763.5 1100.6,764.4 C1101.6,764.7 1102.5,765.1 1103.5,765.4 C1104,765.6 1104.4,765.8 1104.9,765.9 C1105.8,766 1106.8,766.2 1107.7,766.3 C1108.7,766.2 1109.7,766 1110.7,765.9 C1112.2,765.7 1114.6,764.1 1115.5,762.9 C1116.6,761.7 1117.4,760.4 1117.9,758.8 C1118.6,756.4 1118.2,753.8 1117,751.7 C1115.2,748.7 1112.1,747.1 1108.8,747.2 C1107.7,746.9 1106.7,746.5 1105.7,746.1 C1104.9,745.8 1104.1,745.7 1103.3,745.7 C1101.4,745.7 1099.7,746.2 1098.3,747 L1098.3,747 L1098.3,747 Z" id="Shape"></path>
            <path d="M294.2,796.5 C294.2,800.3 297.4,803.5 301.2,803.5 C305,803.5 308.2,800.3 308.2,796.5 C308.2,792.7 305,789.5 301.2,789.5 C297.4,789.5 294.2,792.6 294.2,796.5 L294.2,796.5 L294.2,796.5 Z" id="Shape"></path>
            <path d="M1489,99.2 C1489,102.8 1492,105.9 1495.7,105.9 C1499.4,105.9 1502.4,102.9 1502.4,99.2 C1502.4,95.6 1499.4,92.5 1495.7,92.5 C1492,92.5 1489,95.6 1489,99.2 L1489,99.2 L1489,99.2 Z" id="Shape"></path>
            <path d="M1298.8,4.1 C1297.9,4.6 1297,5.2 1296.2,5.9 C1294.5,6 1292.8,6.3 1291.1,6.7 C1289.1,7.5 1287.2,8.4 1285.2,9.2 C1281.5,11.4 1278.6,14.3 1276.4,18 C1268.4,28.5 1260.6,39.1 1253.1,50 C1245.3,61.3 1237.6,72.5 1229.6,83.6 C1224.8,90.2 1219.9,96.7 1215,103.1 C1213.9,104.5 1212.8,105.9 1211.8,107.4 C1209.9,110.1 1207.9,113.6 1207.3,116.7 C1206.4,121.8 1205.6,126.2 1207.4,131.2 C1208.6,135.4 1210.7,139 1213.7,142 C1215.6,143.5 1217.4,145 1219.3,146.4 C1221.9,147.6 1224.4,148.9 1227.2,149.5 C1230.2,150.2 1233.4,150.4 1236.5,150.7 C1237.8,150.8 1239.2,151 1240.5,151.1 C1240.6,151.1 1240.8,151.1 1240.9,151.1 C1260,154.6 1278.6,160.7 1296.5,168 C1303.3,171.1 1310,174.4 1316.9,177.3 C1317.9,177.7 1318.9,178 1320,178.3 C1321.2,178.6 1325.6,179.4 1328,179.2 C1332,178.8 1337.6,178.2 1341,175.6 C1343,174 1345.3,172.8 1346.9,170.8 C1350.5,166.3 1351.9,164.8 1353.6,159.2 C1354,157.8 1354.2,156.5 1354.4,155.1 C1355.1,149.8 1355.6,144.7 1355.8,139.4 C1356,133.3 1355.6,127.2 1355,121.1 C1354.1,112.3 1353,103.5 1351.2,94.9 C1349,83.8 1345.6,73.1 1343,62.1 C1341.7,56.5 1340.4,51 1338.8,45.5 C1337.6,41.1 1336.4,36.8 1335.6,32.3 C1335.5,31.6 1335.4,31 1335.4,30.3 C1335.3,29.6 1335.3,29 1335.2,28.3 C1335.7,25 1335.4,23.5 1334.5,18.6 C1333.8,14.5 1330.7,10.7 1328.2,7.8 C1324.1,3 1317.2,1 1311.2,0.7 C1311,0.7 1310.7,0.7 1310.5,0.7 C1306.6,0.8 1302.2,2.2 1298.8,4.1 L1298.8,4.1 L1298.8,4.1 Z M1275.7,103.4 C1282.5,94 1289,84.3 1295.6,74.8 C1296.6,79 1297.6,83.2 1298.8,87.4 C1300.4,93.3 1302,99.2 1303.3,105.1 C1304.2,109.2 1304.9,113.3 1305.5,117.4 C1305.6,118 1305.6,118.6 1305.7,119.3 C1302.1,117.9 1298.5,116.5 1294.8,115.3 C1287.4,112.7 1279.9,110.2 1272.4,108.1 C1273.4,106.4 1274.6,104.9 1275.7,103.4 L1275.7,103.4 L1275.7,103.4 Z" id="Shape"></path>
            <path d="M130.1,865 C128.3,865.1 126.6,865.3 124.8,865.4 C121.3,865.6 117.9,865.9 114.5,866.2 C99.7,867.4 84.9,869 70.2,871.3 C68.1,871.6 65.9,872 63.8,872.3 C63.6,872.3 63.5,872.3 63.3,872.4 C61.8,872.3 60.2,872.4 58.7,872.8 C57.9,872.8 57.2,872.8 56.4,872.8 C54.2,872.6 52.3,872.7 50,873.3 C46.9,874.2 44.2,876.2 42.6,879 C40.3,882.9 40.4,887.6 42.6,891.5 C43.8,893.7 45.5,895.3 47.4,896.5 C47.3,898.3 47.1,900.2 47.1,902 C47,905.7 47,909.4 47,913.1 C47,919.8 47.3,926.6 47.5,933.3 C47.6,937 47.7,940.7 47.7,944.4 C47.7,947.2 47.9,949.8 48.3,952.6 C48.5,954.3 49.2,955.5 49.9,957.1 C50.4,958.2 51.8,959.9 52.3,960.3 C54.1,961.9 56.1,963.5 58.6,964 C60,964.3 61.4,964.5 62.8,964.5 C64.2,964.5 65.7,964.2 67.1,963.9 C73.2,963.1 79.4,962.6 85.6,961.9 C93.8,961 101.9,960 110,958.7 C116.9,957.6 123.6,956.2 130.5,955.1 C131.3,955 132.1,954.9 133,954.9 C133.8,954.8 134.6,954.8 135.4,954.7 C136.2,954.9 137,955 137.9,954.9 C139.1,954.7 140.2,954.6 141.4,954.4 C143.6,953.8 145.5,952.7 147.2,951 C148.7,949.5 150.2,947.1 150.7,945 C151.4,942.4 151.5,939.6 151.6,936.9 C151.6,935 151.6,933.1 151.6,931.2 C151.6,927.6 151.4,924.1 151.2,920.5 C150.8,913.8 150.2,907.1 149.6,900.5 C149.3,897 148.9,893.5 148.6,890 C148.2,885.6 147.8,881.2 147.1,876.8 C146.4,872.8 144,868.8 140.4,866.9 C137.8,865.5 135.3,864.9 132.4,864.8 C132.4,864.8 132.4,864.8 132.3,864.8 C131.5,864.9 130.8,865 130.1,865 L130.1,865 L130.1,865 Z M122.5,891.8 C122.8,894.9 123,898.1 123.3,901.2 C124,908.2 124.6,915.2 125,922.2 C125.1,924.7 125.3,927.1 125.3,929.6 C121.9,930.1 118.5,930.7 115.1,931.3 C109.2,932.4 103.2,933.4 97.3,934.3 C89.5,935.3 81.6,936 73.8,936.9 C73.7,934.3 73.7,931.8 73.6,929.2 C73.4,922.1 73.3,915 73.2,908 C73.2,905.8 73.2,903.6 73.3,901.5 C73.4,900 73.5,898.6 73.5,897.1 C77.4,896.5 81.3,895.9 85.2,895.4 C97.6,893.8 110.1,892.7 122.5,891.8 L122.5,891.8 L122.5,891.8 Z" id="Shape"></path>
            <path d="M1395.4,545.5 C1394.4,545.6 1393.3,545.6 1392.3,545.7 C1390.3,545.8 1388.2,546 1386.2,546.2 C1377.4,546.9 1368.6,547.8 1359.9,549.2 C1358.6,549.4 1357.4,549.6 1356.1,549.8 C1356,549.8 1355.9,549.8 1355.8,549.8 C1354.9,549.7 1354,549.8 1353.1,550 C1352.6,550 1352.2,550 1351.7,550 C1350.4,549.9 1349.3,549.9 1347.9,550.3 C1346.1,550.8 1344.5,552 1343.5,553.7 C1342.1,556 1342.2,558.8 1343.5,561.1 C1344.2,562.4 1345.2,563.3 1346.3,564 C1346.2,565.1 1346.1,566.2 1346.1,567.3 C1346.1,569.5 1346,571.7 1346.1,573.9 C1346.1,577.9 1346.3,581.9 1346.4,585.9 C1346.5,588.1 1346.5,590.3 1346.5,592.5 C1346.5,594.2 1346.6,595.7 1346.9,597.4 C1347,598.4 1347.4,599.1 1347.9,600.1 C1348.2,600.8 1349,601.8 1349.3,602 C1350.4,602.9 1351.6,603.9 1353,604.2 C1353.8,604.4 1354.7,604.5 1355.5,604.5 C1356.4,604.5 1357.2,604.3 1358.1,604.2 C1361.7,603.7 1365.4,603.4 1369.1,603 C1373.9,602.5 1378.8,601.9 1383.6,601.1 C1387.7,600.5 1391.7,599.6 1395.8,599 C1396.3,598.9 1396.8,598.9 1397.3,598.9 C1397.8,598.9 1398.2,598.8 1398.7,598.8 C1399.2,598.9 1399.7,599 1400.2,598.9 C1400.9,598.8 1401.6,598.7 1402.3,598.6 C1403.6,598.2 1404.8,597.6 1405.7,596.6 C1406.6,595.7 1407.5,594.3 1407.8,593 C1408.2,591.5 1408.3,589.8 1408.3,588.2 C1408.3,587.1 1408.3,586 1408.3,584.8 C1408.3,582.7 1408.2,580.6 1408,578.5 C1407.8,574.5 1407.4,570.6 1407,566.6 C1406.8,564.5 1406.6,562.5 1406.4,560.4 C1406.2,557.8 1405.9,555.2 1405.5,552.6 C1405.1,550.2 1403.7,547.9 1401.5,546.7 C1400,545.9 1398.5,545.5 1396.7,545.5 C1396.7,545.5 1396.7,545.5 1396.7,545.5 C1396.2,545.4 1395.8,545.5 1395.4,545.5 L1395.4,545.5 L1395.4,545.5 Z M1390.9,561.4 C1391.1,563.3 1391.2,565.1 1391.4,567 C1391.8,571.1 1392.2,575.3 1392.4,579.5 C1392.5,581 1392.6,582.4 1392.6,583.9 C1390.6,584.2 1388.6,584.5 1386.6,584.9 C1383.1,585.5 1379.6,586.2 1376,586.7 C1371.4,587.3 1366.7,587.7 1362,588.3 C1362,586.8 1361.9,585.3 1361.9,583.8 C1361.8,579.6 1361.7,575.4 1361.7,571.2 C1361.7,569.9 1361.7,568.6 1361.8,567.3 C1361.8,566.4 1361.9,565.6 1361.9,564.7 C1364.2,564.3 1366.5,564 1368.8,563.7 C1376.1,562.6 1383.5,561.9 1390.9,561.4 L1390.9,561.4 L1390.9,561.4 Z" id="Shape"></path>
            <path d="M214.7,561.1 C211.9,562 208.2,563.7 206.2,566.1 C205,567.5 203.8,569 202.8,570.6 C202.5,571.1 202.2,571.7 202,572.2 C197.8,580.7 193.5,589.3 188.6,597.4 C183.7,605.5 178,613.2 172.2,620.7 C170,623.6 167.8,626.5 165.8,629.5 C164.8,631.1 163.8,632.6 162.9,634.3 C161.4,637 160,639.3 159,642.3 C158.1,645.6 158.1,648.9 159,652.2 C159.1,652.5 159.2,652.9 159.3,653.2 C156.9,658.5 157,664.9 160.1,670.3 C164.9,678.7 170.3,686.8 175.4,695 C180.6,703.4 185.9,711.7 191.3,720 C193.8,723.9 196.4,727.7 199.2,731.4 C201.3,734.2 203.4,737.1 205.6,739.9 C206.7,741.3 208.3,742.2 209.8,743.2 C213.1,745.2 215.6,745.4 219.5,745.8 C222.7,746.1 226.5,744.6 229.2,743.1 C232.2,741.5 234.4,738.8 236.2,736.1 C236.9,735 237.5,733.9 238,732.7 C242.1,723.9 246.3,715.2 250.9,706.7 C255.6,698.1 260.3,689.5 265.6,681.2 C270.7,673.1 276.1,665.1 281.3,657 C282.8,654.8 284.2,652.5 285.7,650.3 C286,649.9 286.3,649.5 286.6,649.1 C288.7,646.2 289.2,642.6 289.5,639.1 C289.8,634.2 287.2,629.3 284,625.8 C281.7,623.5 278.9,621.9 275.8,621 C275.5,620.9 275.3,620.9 275,620.8 C275,620.8 275,620.8 274.9,620.7 C272.8,618.9 270.8,617 268.9,614.9 C267.7,613.6 266.6,612.3 265.5,611 C260,603.4 254.9,595.6 249.4,588 C246.6,584.1 243.8,580.2 241.4,576 C239.5,572.8 237.4,569.9 235,567.1 C231.5,563 225.7,560.4 220.1,560.4 C218.2,560.3 216.4,560.6 214.7,561.1 L214.7,561.1 L214.7,561.1 Z M196,651.9 C197.1,649.9 198.4,648 199.7,646.1 C202.4,642.2 205.4,638.5 208.2,634.7 C213.2,628 218,621.1 222.3,613.9 C225.1,617.9 227.8,622 230.6,626 C232.7,629.1 235,632 237.2,634.9 C238.7,636.8 240.2,638.8 241.9,640.6 C243,641.7 244,642.8 245.1,643.9 C243.4,646.5 241.7,649 240.1,651.5 C234.7,659.7 229.5,668 224.6,676.6 C222,681.3 219.4,686 216.9,690.7 C212.2,683.4 207.6,676.1 202.9,668.7 C200,664.1 197,659.5 194.2,654.8 C194.9,653.9 195.4,652.8 196,651.9 L196,651.9 L196,651.9 Z" id="Shape"></path>
            <path d="M570.3,870.1 C569.3,866.8 567.1,862.1 564.3,859.8 C562.6,858.5 561.1,857 559.3,855.9 C555.1,853.5 551.5,852.6 546.7,852.4 C546.4,852.4 546.2,852.4 545.9,852.4 C542.4,852.4 539.1,853.4 535.8,854.3 C527.8,856.5 519.8,858.4 511.7,859.8 C510.7,859.9 509.7,860 508.7,860.1 C508.7,859.6 508.7,859.1 508.7,858.6 C508.9,848.3 509.6,838.2 510.9,828 C510.6,825.8 510.3,823.6 510,821.5 C508.8,817.3 506.7,813.7 503.7,810.6 C499.1,806 492.8,803.4 486.3,803.4 C479.8,803.4 473.5,806 468.9,810.6 C467.6,812.3 466.3,813.9 465.1,815.6 C462.9,819.4 461.8,823.6 461.7,828 C460.1,840.4 459.3,852.8 459.5,865.3 C454.7,866 449.9,866.7 445.1,867.3 C442.9,867.5 440.8,867.8 438.6,868 C433.5,868.6 428.3,868.5 423.2,868 C422.2,867.8 421.1,867.7 420.1,867.5 C417.9,867.2 415.7,866.9 413.6,866.6 C409.2,866.6 405,867.7 401.2,870 C395.7,873.2 391.6,878.6 389.9,884.7 C388.2,891.1 389.1,898 392.4,903.7 C393.7,905.4 395,907 396.2,908.7 C399.3,911.8 402.9,913.9 407.1,915 C416.7,916.5 426.2,918 436,917.5 C439.7,917.3 443.3,916.8 446.9,916.4 C452.3,915.8 457.7,915 463,914.2 C463.2,916.9 463.5,919.6 463.7,922.3 C463.9,924.5 464.1,926.7 464.3,928.9 C464.8,935.1 465.2,941.7 468.9,947 C468.9,947 468.9,947 468.9,947 C469.9,948.7 471.2,950.4 472.6,951.8 C477,956.2 483.1,958.8 489.4,958.8 C493.7,958.8 497.7,957.7 501.4,955.6 C505,953.5 507.8,950.6 509.9,947.1 C510,946.9 510.1,946.6 510.2,946.4 C513.2,939.5 512.5,941.6 513.5,934 C513.6,933.2 513.6,932.5 513.6,931.7 C513.5,930.1 513.4,928.5 513.2,926.8 C512.9,923.7 512.6,920.7 512.4,917.7 C512.1,914.9 511.9,912.1 511.6,909.2 C516.9,908.6 522.1,907.9 527.3,907 C533.6,905.8 539.8,904.3 546,902.6 C547.8,902.1 549.6,901.7 551.4,901.1 C556.8,899.3 559.3,897.8 563.5,894.1 C566.2,891.7 569.5,886.2 570.1,882.6 C571.1,877.9 571.8,874.8 570.3,870.1 Z" id="Shape"></path>
            <path d="M755.7,86.5 C750.2,87.5 745,89.7 740.5,92.9 C737.9,94.7 735.5,96.8 733.4,99.2 C731.5,101.3 729.7,103.6 728.1,105.9 C726.8,107.8 725.6,109.8 724.6,111.9 C723.7,113.9 722.7,116 721.9,118.1 C721.5,119.2 721,120.4 720.7,121.6 C719.4,126.4 718.9,131.3 718.1,136.1 C718.1,136.4 718,136.7 718,136.9 C716.9,139 716.2,141.3 716.2,143.7 C716.2,148.4 718.8,152.9 722.8,155.3 C725.3,156.8 728,157 730.9,157.3 C732.5,157.5 734.1,157.3 735.7,157 C736.7,156.9 737.6,156.9 738.6,156.9 C739.5,156.9 740.3,156.9 741.2,156.9 C745,156.7 748.7,155.9 752.3,154.8 C755.1,153.9 757.8,153.1 760.7,152.5 C763,152 765.3,151.6 767.6,151.2 C773.8,150.6 779.9,151 786.1,150.6 C788.9,150.4 791.7,150.1 794.6,149.7 C796.2,149.5 797.7,149.3 799.2,148.9 C800.7,148.5 802.3,148.2 803.7,147.6 C807,146.3 807.6,146 810.3,143.8 C812.3,142.1 813.4,139.7 814.2,137.3 C815.2,134.4 814.7,131 813.7,128.2 C811.2,121.2 808.3,114.3 804.6,107.7 C802.5,103.9 799.8,100.3 796.9,97.1 C795.2,95.1 793,93.5 790.9,92 C789.9,91.3 788.9,90.6 787.8,90 C785.9,89 783.9,88.2 781.9,87.6 C779.5,86.7 776.7,86.5 774.1,86.2 C772.4,86 770.7,85.8 769.1,85.8 C768.2,85.8 767.3,85.7 766.3,85.7 C762.8,85.5 759.2,85.8 755.7,86.5 L755.7,86.5 L755.7,86.5 Z M772.2,112 C773.2,112.2 774.1,112.5 775.1,112.8 C775.4,113 775.8,113.2 776.1,113.4 C777.2,114.4 778.2,115.4 779.1,116.5 C780.8,119 782.4,121.7 783.8,124.4 C782.8,124.5 781.8,124.5 780.7,124.5 C779.1,124.6 777.5,124.5 775.9,124.5 C774.1,124.5 772.3,124.5 770.5,124.6 C766.1,124.8 761.6,125.6 757.3,126.4 C754.1,127 750.9,127.6 747.7,128.6 C747,128.8 746.3,129.1 745.6,129.3 C745.7,128.9 745.8,128.6 745.9,128.2 C746.1,127.5 746.3,126.8 746.6,126.2 C747.8,123.7 749.1,121.4 750.7,119.1 C752,117.6 753.3,116.2 754.7,114.9 C755.7,114.2 756.8,113.6 758,113 C759.2,112.6 760.5,112.3 761.8,112 C765.2,111.6 768.7,111.7 772.2,112 L772.2,112 L772.2,112 Z M747.6,123.9 C747.4,124.4 747.2,124.9 747,125.3 C747.2,124.8 747.4,124.3 747.6,123.9 L747.6,123.9 L747.6,123.9 Z" id="Shape"></path>
            <path d="M880,716.5 C876.5,716.5 875.7,716.6 872.3,717.8 C870.8,718.3 869.4,719 868.1,719.8 C864.3,722.1 860.5,724.5 857.2,727.5 C853.8,730.6 850.6,734 847.6,737.5 C843.1,742.7 839,748.2 834.9,753.7 C833,756.2 831.2,758.8 829.5,761.4 C829.2,761.8 829,762.2 828.7,762.6 C826.8,760.2 825.1,757.8 823.4,755.2 C820.2,749.6 817.1,743.9 813.8,738.4 C812.9,736.9 812,735.5 811.1,734 C810.8,733.6 810.5,733.1 810.2,732.7 C809.1,731.1 807.7,729.8 806.3,728.5 C805.4,727.6 803.5,726.5 802.6,726.3 C801.3,726 800,725.4 798.7,725.4 C794.5,725.4 795.7,725.3 791.7,726.5 C791.4,726.6 791.2,726.7 791,726.8 C788,728.3 786.6,729.7 784.4,732.2 C782.2,734.6 780.6,737.5 779,740.3 C775,747.1 771.2,754 767.6,761.1 C764.6,767 761.8,772.9 758.8,778.8 C757.5,781.4 756.2,784 754.9,786.6 C753.5,789.5 753.8,793.3 755.1,796.2 C756.4,799.1 758.8,801.4 761.8,802.6 C764.9,803.8 768.4,803.7 771.4,802.4 C772.3,801.9 773.2,801.3 774.1,800.8 C775.8,799.4 777,797.8 777.8,795.7 C780.5,790.2 783.3,784.9 786.1,779.5 C788.4,775 790.8,770.5 793.2,766.1 C794.2,764.3 795.3,762.4 796.4,760.6 C797.6,762.7 798.8,764.8 800,766.9 C804.4,774.4 809.3,781.7 816.3,787.1 C818.4,788.7 820.8,789.9 823.2,791.1 C824.8,791.9 826.8,792.2 828.5,792.6 C828.8,792.7 829.2,792.7 829.5,792.7 C830.6,792.7 832.3,792.8 833.6,792.5 C838.5,791.7 842.4,788.4 845.3,784.6 C847.4,781.9 849.1,778.9 851.1,776.1 C854.9,770.5 858.9,765 863.2,759.7 C865.8,756.5 868.4,753.3 871.2,750.2 C871.6,749.9 871.9,749.5 872.3,749.2 C875,759.9 877.7,770.6 881.9,780.8 C883.4,784.5 884.9,788.2 886.2,792 C886.8,793.8 887.4,795.7 887.9,797.5 C888.2,798.4 888.5,799.3 888.8,800.3 C888.9,800.7 889.1,801.1 889.3,801.6 C889.8,802.9 890.7,804.1 891.5,805.3 C893.6,808.2 897,809.6 900.4,810.1 C902.7,810.3 905,810 907.1,809.1 C910.2,807.7 912.6,805.2 913.9,802 C914.8,799.8 915,797.5 914.6,795.2 C914.5,793.4 913.5,791.8 912.9,790.1 C912.7,789.4 912.4,788.7 912.2,788 C911.8,786.7 911.4,785.4 911,784.1 C910.1,781.4 909.2,778.7 908.1,776 C907,773.2 905.8,770.4 904.7,767.6 C903.7,765.1 902.8,762.5 902,759.9 C900.3,753.9 898.8,747.8 897.3,741.8 C896.2,737.4 895,733.1 893.7,728.8 C893,726.5 892,724.6 890.5,722.6 C889,720.6 886.3,718.8 884,717.9 C883.3,717.6 881.8,717.2 880.5,717 C880.5,716.5 880.3,716.5 880,716.5 L880,716.5 L880,716.5 Z" id="Shape"></path>
            <path d="M478.8,376.5 C473.6,376.6 468.3,377.3 463.2,378.3 C461.2,378.7 459.2,379.4 457.2,380.1 C454.3,381.1 451.4,382.4 448.6,383.7 C446.7,384.6 444.9,385.6 443.1,386.7 C441.5,387.7 439.8,388.7 438.3,389.8 C434.1,393 430,396.2 426.2,399.8 C423.1,402.8 420.3,405.9 417.6,409.2 C415.5,411.8 413.7,414.4 412,417.2 C411,418.9 410.1,420.7 409.2,422.5 C406.8,427.3 404.9,432.3 402.9,437.2 C401.3,440.9 399.8,444.6 398.4,448.4 C397,452.1 396.1,456 395.2,459.9 C394,465.1 393.3,470.4 392.8,475.7 C392.4,480.1 393.2,484.5 393.8,488.8 C394.1,490.7 394.5,492.5 395.1,494.4 C395.4,495.3 395.7,496.1 396,496.9 C396.8,499 397.7,501.2 398.7,503.2 C400.6,507 403,510.6 405.8,513.8 C407.1,515.3 408.4,516.8 409.9,518.2 C412.3,520.3 414.8,522.4 417.4,524.3 C420.8,526.7 424.4,528.9 428.1,530.8 C429.2,531.4 430.3,531.8 431.4,532.3 C433.7,533.3 436,534.3 438.4,535 C442.2,536 446.1,536.2 450,536 C452.6,536 455,535.3 457.2,534 C460.4,532.1 462.8,529 463.8,525.4 C465.8,518.1 461.4,509.6 453.8,507.8 C451.4,507.2 449.1,506.3 446.8,505.4 C444.4,504.3 442.1,503.1 439.8,501.8 C437.8,500.7 435.8,499.4 433.9,498 C431.8,496.2 429.8,494.4 428,492.3 C427,490.8 426.1,489.1 425.2,487.5 C424.9,486.6 424.5,485.7 424.2,484.8 C423.9,484 423.7,483.1 423.6,482.2 C423.4,480 423.3,477.8 423.5,475.6 C423.6,474.8 423.7,474 423.7,473.2 C424.7,467.6 426.1,462.1 427.9,456.7 C428.8,453.9 430,451.2 431.1,448.4 C431.9,446.4 432.8,444.4 433.6,442.4 C434.6,440 435.7,437.7 436.8,435.4 C437.9,433.2 439.1,431.2 440.5,429.2 C444.5,424.5 448.8,420.2 453.5,416.3 C457.2,413.6 461.1,411.3 465.2,409.4 C466.6,408.9 468,408.4 469.4,408 C471.2,407.5 472.9,407.2 474.7,406.9 C477.5,406.6 480.3,406.5 483.1,406.7 C484.5,407 485.8,407.2 487.2,407.6 C488.9,408 490.5,408.6 492.1,409.2 C495.1,410.6 498,412.3 500.7,414.2 C501.3,414.7 501.9,415.2 502.5,415.8 C503.2,416.6 504,417.3 504.6,418.1 C505.8,419.9 506.8,421.7 507.8,423.7 C508.4,425.2 508.9,426.8 509.3,428.4 C509.7,429.6 509.9,430.9 510.1,432.2 C510.3,433.6 510.4,435.1 510.4,436.5 C510.4,437.7 510.4,438.8 510.3,440 C510,441.5 509.6,443 509.1,444.4 C508.6,445.9 508.1,447.3 507.5,448.7 C506.7,450.4 505.8,452.1 504.9,453.8 C504.2,455 503.4,456.2 502.6,457.3 C501.4,458.7 500.2,460 498.9,461.3 C497.7,462.6 496.3,463.7 495,464.8 C493.5,465.9 491.9,467.1 490.2,468.1 C488.3,469.3 486.3,470.2 484.2,471.2 C484,471.3 483.9,471.3 483.7,471.4 C482,472.1 480.2,472.6 478.4,472.9 C477.2,473 475.9,473 474.7,472.9 C473.5,472.6 472.3,472.3 471.2,471.9 C470.2,471.4 469.3,470.9 468.4,470.3 C468.1,470 467.8,469.8 467.5,469.5 C466.9,468.6 466.4,467.6 465.9,466.7 C465.6,465.8 465.4,464.8 465.2,463.9 C465.1,461.7 465.2,459.5 465.4,457.4 C465.9,454.4 466.7,451.5 467.7,448.6 C468.5,446.9 469.4,445.3 470.4,443.8 C471,443.1 471.7,442.4 472.4,441.8 C473.2,441.3 474.1,440.8 475,440.4 C476.5,439.8 478.1,439.3 479.6,438.9 C484.5,437.4 487.5,432.4 486.1,427.4 C484.8,422.6 479.5,419.4 474.6,420.9 C472.6,421.5 470.5,422.2 468.6,422.9 C467.1,423.5 465.7,424.1 464.2,424.8 C461.8,425.9 459.9,427.5 457.8,429.1 C456.3,430.3 454.9,431.5 453.7,433 C452,435.1 450.2,437.2 448.9,439.5 C446.5,443.6 444.8,448.2 443.5,452.8 C442.1,457.5 441.2,462.5 441.4,467.5 C441.6,472.6 443.1,477.1 445.2,481.7 C445.9,483.2 446.6,484.7 447.6,486 C448.9,487.7 450.1,489.3 451.6,490.8 C453.3,492.5 455.2,493.9 457.2,495.3 C460.1,497.3 463.5,498.7 466.7,499.9 C469.4,500.9 472.3,501.2 475.2,501.5 C476.7,501.7 478.3,501.7 479.8,501.7 C482.1,501.6 484.5,501.2 486.7,500.8 C488.1,500.6 489.4,500.3 490.7,499.9 C491.9,499.5 493.1,499.1 494.3,498.6 C497.1,497.6 499.9,496.4 502.6,495.1 C506.3,493.3 509.7,491.1 513,488.6 C515.4,486.8 518,484.9 520.2,482.8 C521.7,481.4 523.1,479.9 524.4,478.3 C527.9,474.3 530.8,470 533.2,465.3 C535.6,460.6 537.4,455.6 538.6,450.5 C539.1,448.5 539.3,446.3 539.5,444.4 C539.6,443.3 539.8,442.3 539.8,441.2 C539.9,439.3 539.9,437.4 539.7,435.5 C539.1,430.3 538.4,425.1 536.8,420 C536.2,418.1 535.5,416.2 534.7,414.4 C533.5,411.5 532.3,408.6 530.6,405.9 C527.8,401.4 524.5,397.4 520.6,393.8 C518.3,391.7 515.8,389.9 513.3,388.1 C511.7,387 510.2,385.9 508.5,385 C499.5,380.2 489.6,376.7 479.2,376.7 C479.5,376.5 479.2,376.5 478.8,376.5 L478.8,376.5 L478.8,376.5 Z" id="Shape"></path>
            <path d="M1508,542.5 C1510.1,546.2 1512.6,549.7 1515.3,553 C1516.4,554.3 1517.6,555.5 1518.9,556.6 C1520.8,558.3 1522.8,559.9 1524.9,561.4 C1526.3,562.4 1527.7,563.3 1529.2,564.2 C1530.5,565 1531.9,565.8 1533.3,566.5 C1537.2,568.3 1541.1,570 1545.2,571.4 C1548.5,572.5 1551.8,573.3 1555.3,574 C1558,574.5 1560.5,574.8 1563.2,575 C1564.8,575.1 1566.5,575 1568.1,574.9 C1572.5,574.8 1576.8,574.2 1581.1,573.8 C1584.4,573.5 1587.6,573.2 1590.9,572.7 C1594.1,572.3 1597.3,571.4 1600.4,570.6 C1604.6,569.5 1608.7,567.9 1612.7,566.2 C1616,564.8 1618.9,562.6 1621.7,560.5 C1623,559.6 1624.1,558.5 1625.2,557.4 C1625.7,556.9 1626.2,556.3 1626.7,555.8 C1627.9,554.4 1629.1,552.9 1630.2,551.4 C1632.2,548.6 1633.8,545.5 1635,542.2 C1635.6,540.7 1636.2,539.1 1636.5,537.5 C1637.1,534.9 1637.6,532.3 1637.9,529.7 C1638.3,526.3 1638.5,522.9 1638.5,519.5 C1638.5,518.5 1638.4,517.5 1638.3,516.5 C1638.1,514.5 1638,512.4 1637.5,510.4 C1636.8,507.3 1635.4,504.4 1633.8,501.7 C1632.8,499.8 1631.4,498.4 1629.6,497.2 C1627,495.6 1623.8,495.1 1620.9,495.8 C1614.8,497.2 1610.5,503.6 1612.1,509.8 C1612.6,511.8 1612.9,513.8 1613.1,515.8 C1613.2,517.9 1613.3,520.1 1613.2,522.2 C1613.2,524.1 1613,526 1612.8,527.9 C1612.3,530.1 1611.8,532.2 1611,534.3 C1610.3,535.6 1609.5,536.9 1608.6,538.2 C1608.1,538.8 1607.5,539.4 1607,540 C1606.5,540.5 1606,541 1605.4,541.4 C1603.9,542.4 1602.4,543.3 1600.7,544 C1600.1,544.3 1599.5,544.5 1598.9,544.8 C1594.5,546.2 1590,547.4 1585.4,548.1 C1583,548.5 1580.6,548.7 1578.2,549 C1576.4,549.2 1574.7,549.4 1572.9,549.5 C1570.8,549.7 1568.7,549.8 1566.6,549.9 C1564.6,550 1562.7,549.8 1560.7,549.6 C1555.8,548.6 1551.1,547.1 1546.4,545.2 C1543.1,543.6 1539.9,541.6 1536.9,539.4 C1536,538.6 1535.1,537.8 1534.3,536.9 C1533.3,535.8 1532.3,534.7 1531.4,533.5 C1530.1,531.6 1529,529.6 1528,527.5 C1527.7,526.4 1527.3,525.3 1527.1,524.2 C1526.8,522.8 1526.5,521.5 1526.4,520.1 C1526.3,517.4 1526.3,514.7 1526.6,512 C1526.7,511.4 1526.9,510.7 1527.1,510.1 C1527.4,509.3 1527.6,508.5 1527.9,507.7 C1528.7,506.2 1529.7,504.7 1530.7,503.3 C1531.6,502.3 1532.5,501.3 1533.5,500.4 C1534.3,499.7 1535.1,499 1535.9,498.4 C1536.9,497.7 1537.8,497.1 1538.9,496.5 C1539.7,496.1 1540.6,495.6 1541.4,495.3 C1542.6,494.9 1543.8,494.6 1545,494.4 C1546.2,494.2 1547.5,494 1548.7,493.9 C1550.3,493.8 1551.8,493.8 1553.4,493.8 C1554.5,493.8 1555.7,493.9 1556.8,494.1 C1558.2,494.4 1559.7,494.8 1561.1,495.2 C1562.5,495.6 1563.8,496.1 1565.1,496.7 C1566.5,497.4 1567.9,498.1 1569.3,498.9 C1570.9,499.8 1572.4,500.9 1573.8,502 C1573.9,502.1 1574,502.2 1574.1,502.3 C1575.3,503.3 1576.3,504.4 1577.2,505.6 C1577.7,506.5 1578.2,507.4 1578.7,508.3 C1579,509.3 1579.2,510.3 1579.3,511.3 C1579.3,512.2 1579.3,513 1579.2,513.9 C1579.1,514.2 1579,514.5 1578.9,514.8 C1578.5,515.6 1578,516.3 1577.5,517.1 C1577,517.7 1576.4,518.2 1575.8,518.7 C1574.3,519.6 1572.7,520.4 1571,521.1 C1568.6,521.9 1566.3,522.5 1563.8,522.8 C1562.3,522.9 1560.8,522.9 1559.3,522.7 C1558.5,522.5 1557.8,522.3 1557.1,522.1 C1556.4,521.7 1555.7,521.2 1555.1,520.8 C1554.1,519.9 1553.2,519 1552.2,518.1 C1549.3,515.2 1544.5,514.9 1541.4,517.8 C1538.5,520.6 1538.2,525.7 1541.1,528.6 C1542.3,529.8 1543.6,531 1544.9,532.2 C1545.9,533 1546.9,533.8 1547.9,534.6 C1549.6,535.9 1551.5,536.7 1553.5,537.5 C1554.9,538.1 1556.4,538.6 1557.9,538.9 C1560,539.3 1562.3,539.8 1564.5,539.8 C1568.4,540 1572.3,539.4 1576.1,538.5 C1580,537.6 1584,536.4 1587.5,534.4 C1591.1,532.3 1593.8,529.5 1596.3,526.2 C1597.1,525.1 1597.9,524 1598.5,522.8 C1599.2,521.2 1599.9,519.7 1600.4,518.1 C1601,516.2 1601.2,514.3 1601.5,512.4 C1601.8,509.6 1601.5,506.6 1601.1,503.8 C1600.8,501.4 1599.9,499.3 1599,497.1 C1598.5,496 1598,494.8 1597.4,493.8 C1596.5,492.2 1595.2,490.6 1594.1,489.1 C1593.4,488.2 1592.7,487.4 1591.9,486.6 C1591.2,485.8 1590.4,485.2 1589.6,484.5 C1587.8,482.9 1585.9,481.3 1583.9,479.9 C1581.2,477.9 1578.3,476.3 1575.2,474.9 C1573,473.9 1570.6,472.7 1568.3,472 C1566.7,471.5 1565.1,471.1 1563.5,470.7 C1559.3,469.7 1555,469.3 1550.8,469.4 C1546.5,469.5 1542.2,470.1 1538,471.2 C1536.4,471.6 1534.7,472.3 1533.2,472.9 C1532.4,473.2 1531.6,473.5 1530.7,473.9 C1529.3,474.5 1527.9,475.3 1526.7,476.2 C1523.2,478.7 1519.7,481.2 1516.7,484.2 C1515.6,485.4 1514.5,486.6 1513.5,487.9 C1511.9,489.9 1510.3,491.9 1509,494.1 C1506.8,497.8 1505.2,501.8 1504.2,506 C1503.6,508.4 1503.2,510.9 1502.9,513.4 C1502.7,514.9 1502.5,516.5 1502.5,518.1 C1502.5,526.5 1503.8,534.9 1507.8,542.4 C1507.8,542 1507.9,542.3 1508,542.5 L1508,542.5 L1508,542.5 Z" id="Shape"></path>
            <path d="M1283.3,749.1 C1276.4,748.9 1269.3,749 1262.6,751.1 C1257.4,752.7 1252.1,754.7 1247.3,757.4 C1240.6,761.1 1234.3,765.5 1228.2,770.1 C1223.5,773.7 1219.2,778 1215.2,782.3 C1213,784.6 1210.8,787 1208.7,789.5 C1205.9,792.7 1202.9,796 1200.3,799.3 C1196.5,804.1 1192.6,808.9 1189.3,814 C1184.9,820.7 1181.5,828 1178.4,835.3 C1176,840.7 1173.9,846.3 1172.4,852 C1171.5,852.5 1170.7,853 1169.8,853.5 C1165.9,855.8 1162.2,858.4 1158.5,861 C1156.1,862.7 1153.6,864.5 1151.4,866.5 C1149.1,868.7 1146.8,870.9 1144.6,873.2 C1140,878 1135.7,883.2 1132.1,888.8 C1127.6,895.9 1124,903.4 1120.6,911 C1118.3,916.1 1116.3,921.4 1114.4,926.8 C1112.4,932.4 1110.7,938.1 1109.5,943.9 C1108,951.5 1106.2,959.3 1106.1,967.1 C1106,974.9 1106.4,982.8 1108.3,990.4 C1109.3,994.2 1110.6,998 1112.8,1001.4 C1114.6,1004.9 1117.1,1007.7 1120.3,1009.8 C1125.3,1013.1 1131.4,1014.2 1137.2,1013 C1142.8,1011.8 1147.8,1008.3 1151,1003.6 C1154.1,998.9 1155.8,992.2 1154.2,986.7 C1153,982.7 1152.2,978.6 1151.6,974.4 C1151.5,972.3 1151.5,970.1 1151.7,968 C1151.9,965.4 1152.2,962.8 1152.5,960.2 C1153.8,954.1 1155.3,948.1 1157.4,942.1 C1159.6,935.7 1162.2,929.4 1164.9,923.3 C1167.7,918 1170.7,912.9 1174.4,908.2 C1175.2,910.1 1176.1,912 1177,913.8 C1179.5,918.6 1182.7,923.2 1185.8,927.5 C1186.7,928.8 1187.6,930.1 1188.5,931.4 C1191.9,936.2 1196.4,940.3 1201.1,943.6 C1202.7,944.7 1204.5,945.6 1206.2,946.5 C1209.5,948.1 1212.8,949.8 1216.3,951 C1222,952.9 1228.1,953.5 1234.1,953.9 C1237.5,954.1 1241.2,953.6 1244.5,953.3 C1246.5,953.1 1248.4,952.8 1250.4,952.4 C1252.4,952 1254.3,951.4 1256.2,950.8 C1259.8,949.7 1263.4,948.4 1266.8,946.9 C1272,944.7 1276.6,941.2 1281.2,938 C1283.8,936.2 1286.1,934.1 1288.3,931.8 C1291.6,928.3 1294.9,924.7 1297.8,920.9 C1300.5,917.2 1302.4,913.3 1304.3,909.1 C1305.7,906 1306.2,902.2 1306.7,898.9 C1307.3,895.2 1306.7,891.3 1306.3,887.6 C1305.9,884.4 1304.4,881.2 1303.3,878.2 C1302.7,876.6 1301.8,875.1 1301,873.6 C1299.3,870.6 1297.2,867.7 1294.9,865 C1292.3,862.1 1289.2,859.7 1286.2,857.2 C1283.3,854.8 1280.1,852.9 1276.9,851 C1272.7,848.6 1268.2,846.6 1263.7,844.8 C1260.6,843.5 1257.4,842.4 1254.2,841.3 C1248.7,839.5 1243,838.5 1237.4,837.5 C1233.9,836.9 1230.3,836.6 1226.7,836.7 C1228.7,833.8 1230.6,831 1232.6,828.1 C1236,823.3 1239.7,818.8 1243.5,814.3 C1246.6,810.8 1249.8,807.3 1253.3,804.1 C1257,800.7 1260.8,797.6 1264.8,794.6 C1267.9,792.7 1271.1,790.9 1274.4,789.4 C1275.2,789.2 1276,789 1276.8,788.9 C1278.4,788.9 1280.1,789 1281.7,789 C1292.5,789.3 1302,781 1302.5,770 C1302.9,761.1 1297,752.8 1288.7,750.1 C1286.8,749.5 1285.1,749.2 1283.3,749.1 L1283.3,749.1 L1283.3,749.1 Z M1251.4,888.6 C1254.3,890.2 1257.2,892 1259.8,894 C1260,894.2 1260.2,894.4 1260.4,894.7 C1260.1,895.2 1259.7,895.7 1259.3,896.2 C1256.8,898.7 1254.3,901.1 1251.5,903.3 C1249.5,904.5 1247.4,905.6 1245.2,906.6 C1242.6,907.4 1239.9,908.1 1237.2,908.5 C1235.1,908.5 1233.1,908.4 1231,908.2 C1229.8,907.9 1228.7,907.5 1227.5,907.1 C1226.7,906.7 1226,906.2 1225.2,905.7 C1223.3,903.7 1221.7,901.5 1220,899.3 C1219.5,898.5 1219,897.7 1218.4,896.9 C1216.3,893.7 1214.7,890.3 1213.3,886.7 C1213,885.8 1212.8,884.8 1212.6,883.9 C1215.3,883.3 1218,882.8 1220.7,882.3 C1224.7,882.1 1228.7,882.1 1232.8,882.6 C1239.4,884 1245.5,886.1 1251.4,888.6 L1251.4,888.6 L1251.4,888.6 Z" id="Shape"></path>
            <path d="M1541.4,868.6 C1540.8,869.4 1540.1,870.3 1539.5,871.1 C1538.4,873 1537.8,875.1 1537.8,877.4 C1539.1,892.2 1542.6,906.8 1546.4,921.1 C1547.3,924.5 1548.2,927.8 1549.2,931.2 C1550,933.9 1551.1,936.6 1551.7,939.3 C1551.8,940.2 1551.9,941.1 1552.1,942.1 C1552.7,944.3 1553.8,946.2 1555.5,947.9 C1557.1,949.5 1559.1,950.6 1561.3,951.3 C1561.3,951.3 1561.3,951.3 1561.3,951.3 C1564.6,952.3 1568.4,951.7 1571.4,950 C1573.2,948.9 1574.7,947.5 1575.8,945.8 C1577.4,944.7 1579,943.6 1580.5,942.5 C1582.9,940.7 1585.4,939 1587.9,937.4 C1592.7,934.3 1597.8,931.8 1603,929.5 C1607.1,927.8 1611.2,926.3 1615.3,924.8 C1617.7,923.9 1620.2,923 1622.6,922.1 C1623.8,921.7 1625,921.2 1626.1,920.8 C1627.7,920.2 1629.2,919.5 1630.7,918.8 C1632.2,918.1 1633.4,917.2 1634.6,916 C1638.7,912 1639.5,905.3 1636.6,900.4 C1635.5,898.5 1633.9,896.9 1632,895.8 C1628.9,894 1625.5,893.7 1622,894.5 C1620.3,894.9 1618.6,895.8 1617,896.7 C1611.7,898.8 1606.3,900.4 1601,902.4 C1593.5,905.3 1586.1,908.5 1579,912.3 C1576.5,913.7 1574.1,915.2 1571.8,916.9 C1570,910.9 1568.3,904.9 1566.8,898.9 C1566,895.5 1565.2,892.2 1564.5,888.8 C1563.9,886.1 1563.5,883.3 1563.1,880.6 C1563,879.7 1562.9,878.8 1562.8,877.8 C1562.7,876.7 1562.5,875.6 1562.4,874.5 C1561.8,872.4 1560.7,870.6 1559.2,869 C1556.9,866.7 1553.7,865.4 1550.4,865.4 C1547.1,865.4 1543.7,866.2 1541.4,868.6 L1541.4,868.6 L1541.4,868.6 Z" id="Shape"></path>
            <path d="M586.1,638.2 C585.3,638.2 584.6,638.3 583.8,638.3 C583.2,638.3 582.6,638.4 581.9,638.4 C578.1,638.4 574.8,639.8 572,642.4 C570.4,644 569.3,646 568.6,648.2 C567.6,651.7 568.2,655.2 569.9,658.3 C571.3,660.9 573.5,662.8 576.1,663.9 C576.5,664.1 577,664.3 577.4,664.5 C578.4,665 579.4,665.5 580.4,666.1 C583.5,667.8 587,668.4 590.5,667.4 C593.8,666.5 596.6,664.3 598.3,661.4 C600.8,657.2 600.5,651.7 598,647.6 C596.6,642.4 591.8,638.2 586.3,638.2 C586.4,638.2 586.3,638.2 586.1,638.2 L586.1,638.2 L586.1,638.2 Z" id="Shape"></path>
            <path d="M153.4,64.7 C152.6,64.7 151.9,64.8 151.1,64.8 C150.5,64.8 149.9,64.9 149.2,64.9 C145.4,64.9 142.1,66.3 139.3,68.9 C137.7,70.5 136.6,72.5 135.9,74.7 C134.9,78.2 135.5,81.7 137.2,84.8 C138.6,87.4 140.8,89.3 143.4,90.4 C143.8,90.6 144.3,90.8 144.7,91 C145.7,91.5 146.7,92 147.7,92.6 C150.8,94.3 154.3,94.9 157.8,93.9 C161.1,93 163.9,90.8 165.6,87.9 C168.1,83.7 167.8,78.2 165.3,74.1 C163.9,68.9 159.1,64.7 153.6,64.7 C153.7,64.7 153.5,64.7 153.4,64.7 L153.4,64.7 L153.4,64.7 Z" id="Shape"></path>
            <path d="M892.5,334.8 C892.1,335.1 891.7,335.4 891.3,335.8 C890.7,336.4 890.3,337 889.9,337.7 C889.3,338.8 888.9,340 888.8,341.2 C888.4,342 888.1,342.8 887.7,343.7 C886.8,345.9 887.1,349 888.4,351 C889.7,352.9 891.3,354.3 893.6,355 C895.8,355.6 898.3,355.3 900.3,354.1 C903.2,352.4 904.3,349.7 905.5,346.9 C905.7,346.4 905.9,345.9 906,345.3 C906,345.2 906,345.1 906.1,345 C906.3,344.7 906.4,344.5 906.6,344.2 C908.9,340.2 907.6,335 903.6,332.7 C902.3,331.9 900.9,331.6 899.4,331.6 C896.7,331.5 894.1,332.7 892.5,334.8 L892.5,334.8 L892.5,334.8 Z" id="Shape"></path>
            <path d="M1531.9,184.4 C1526.7,182.5 1521.4,181 1515.9,179.9 C1513.9,179.5 1511.8,179.1 1509.7,178.8 C1506.5,178.3 1503.2,178.4 1499.9,178.4 C1497.8,178.4 1495.7,178.8 1493.7,179.2 C1490.5,179.9 1487.3,180.7 1484.3,181.9 C1482.2,182.7 1480.1,184 1478.2,185.1 C1476.3,186.2 1474.7,188.1 1473.3,189.6 C1472.4,190.6 1470.6,194 1470.6,194 C1469.8,195.6 1469.5,197.5 1469.1,199.2 C1468.4,202.7 1469.3,206.1 1470.2,209.4 C1470.8,211.7 1472.2,213.7 1473.4,215.8 C1473.8,216.4 1474.3,217 1474.8,217.5 C1476,218.9 1477.5,220.3 1478.7,221.5 C1479.1,221.9 1479.5,222.4 1480,222.8 C1483.2,225.8 1486.6,228.4 1489.8,231.3 C1490.5,232.1 1491.2,233 1491.8,233.9 C1492,234.3 1492.1,234.7 1492.2,235 C1492.5,236.9 1492.7,238.7 1492.9,240.6 C1489.5,240.4 1486.1,239.8 1482.7,239 C1477.9,237.5 1473.2,236 1468.2,235.1 C1464.8,234.5 1461.2,234.6 1457.8,234.7 C1456.7,234.7 1455.7,234.9 1454.7,235.1 C1452.9,235.5 1451.1,236 1449.3,236.5 C1448.8,236.6 1448.3,236.9 1447.8,237.1 C1445.9,237.9 1444.2,239 1442.5,240 C1439.5,241.8 1437.1,244.6 1434.7,247 C1434,247.7 1433.3,248.6 1432.8,249.5 C1431.4,251.6 1430,253.8 1429.2,256.2 C1428.7,257.9 1428.1,259.9 1427.8,261.7 C1427.5,263.3 1427.7,266.4 1427.7,267.3 C1427.7,268 1427.8,268.6 1427.9,269.2 C1428.3,271.3 1428.9,273.5 1429.6,275.5 C1430.8,278.7 1432.6,281.6 1434.4,284.4 C1435.5,286.1 1436.8,287.7 1438.2,289.3 C1439.7,291 1441.3,292.7 1442.7,294.4 C1444.1,296.2 1445.3,298 1446.5,299.9 C1448.3,303 1450.2,306 1452,309.1 C1453.4,311.8 1454.6,314.5 1455.6,317.3 C1455.6,317.3 1455.5,317.4 1455.5,317.4 C1454.7,317.7 1453.9,318 1453.1,318.3 C1451.7,318.6 1450.2,318.8 1448.7,318.9 C1446.8,318.7 1445,318.4 1443.1,318 C1441.1,317.3 1439.1,316.6 1437.2,315.7 C1434.5,314.4 1431.9,312.7 1429.2,311.4 C1422.4,308.2 1413.8,310.9 1409.4,316.6 C1406.6,320.1 1405.4,324.6 1405.9,329.1 C1406.4,333.6 1408.8,337.5 1412.3,340.4 C1415.3,342.8 1418.7,344.6 1422,346.4 C1423.8,347.4 1425.7,348.3 1427.7,349 C1436.1,352.1 1445.1,354 1454.1,353 C1458,352.6 1462,351.5 1465.8,350.4 C1467.1,350 1468.3,349.5 1469.5,348.9 C1472,347.7 1474.5,346.3 1476.7,344.7 C1478.9,343.2 1480.8,341.1 1482.6,339.2 C1483.5,338.3 1484.2,337.3 1484.8,336.2 C1486.1,334 1487.4,332 1488.3,329.6 C1489.2,327.2 1489.9,324.6 1490.2,322 C1490.5,319.5 1490.5,316.9 1490.2,314.4 C1490,312.2 1489.2,310.1 1488.6,308 C1488.3,306.9 1487.9,305.8 1487.5,304.6 C1486.8,302.7 1486,300.8 1485.1,298.9 C1483.1,294.6 1480.7,290.5 1478.2,286.5 C1476.4,283.5 1474.7,280.5 1472.8,277.5 C1471,274.6 1468.6,272.1 1466.4,269.6 C1466.4,269.6 1466.4,269.6 1466.4,269.6 C1466.5,269.6 1466.5,269.6 1466.6,269.6 C1471.1,271 1475.5,272.5 1480.1,273.3 C1487.6,274.7 1495.4,275.3 1502.9,273.8 C1505.3,273.3 1507.8,272.8 1510.1,271.8 C1512.6,270.8 1515,269.4 1517.1,267.8 C1519,266.3 1521,264.4 1522.3,262.3 C1523.3,260.7 1524.3,259.1 1525.1,257.3 C1525.9,255.6 1526.5,252.7 1526.8,251.4 C1527.6,247.6 1527.3,243.6 1527.1,239.7 C1527,237.6 1526.8,235.6 1526.6,233.6 C1526.2,230.1 1525.2,226.6 1524.2,223.3 C1524.1,222.8 1523.9,222.4 1523.7,221.9 C1522.8,219.6 1521.4,217.4 1520.1,215.3 C1519.5,214.3 1518.8,213.3 1518,212.4 C1516.4,210.4 1514.4,208.6 1512.6,206.7 C1512.2,206.3 1511.9,206 1511.5,205.6 C1513.7,205.8 1515.8,206 1517.9,206.4 C1519.4,206.9 1520.8,207.3 1522.2,207.8 C1525.4,208.9 1528.6,209.2 1531.8,207.9 C1535,206.6 1537.6,204.1 1538.9,200.9 C1540.2,197.8 1540.2,194.3 1539,191.3 C1538.2,189.2 1536.7,187.3 1534.9,185.8 C1533.8,185.4 1532.9,184.8 1531.9,184.4 L1531.9,184.4 L1531.9,184.4 Z" id="Shape"></path>
            <path d="M1166.4,320.5 C1166.4,324.1 1169.4,327.1 1173,327.1 C1176.6,327.1 1179.6,324.1 1179.6,320.5 C1179.6,316.9 1176.6,313.9 1173,313.9 C1169.4,313.9 1166.4,317 1166.4,320.5 L1166.4,320.5 L1166.4,320.5 Z" id="Shape"></path>
        </g>
    </g>
</svg>